<svg width="514" height="514" viewBox="0 0 514 514" fill="none" xmlns="http://www.w3.org/2000/svg">
<rect width="513.552" height="513.552" fill="#60AC1B"/>
<path d="M90.1788 361.842L100.542 351.479L159.415 379.834L131.059 320.961L141.422 310.598L179.365 391.462L171.042 399.785L90.1788 361.842ZM84.5893 367.431L94.9115 357.109L139.301 397.745L156.192 414.636L143.993 426.835L84.5893 367.431ZM136.69 315.331L147.053 304.968L206.456 364.371L194.216 376.611L177.325 359.72L136.69 315.331ZM209.516 301.092L218.736 310.313L195.685 333.364L186.464 324.144L209.516 301.092ZM253.252 285.833L240.441 298.644L231.262 289.464L244.073 276.654C245.868 274.858 247.092 273.118 247.744 271.431C248.37 269.718 248.506 268.14 248.152 266.699C247.799 265.203 247.037 263.87 245.868 262.7C244.589 261.422 243.121 260.524 241.461 260.008C239.829 259.464 238.102 259.45 236.28 259.967C234.43 260.456 232.608 261.599 230.813 263.394L222.367 271.839L260.678 310.15L248.928 321.9L201.397 274.369L221.592 254.173C225.672 250.093 229.874 247.306 234.199 245.81C238.551 244.286 242.726 243.974 246.724 244.871C250.75 245.742 254.34 247.754 257.495 250.909C259.78 253.194 261.426 255.737 262.432 258.539C263.438 261.286 263.765 264.196 263.411 267.27C263.085 270.316 262.078 273.417 260.392 276.572C258.706 279.673 256.326 282.76 253.252 285.833ZM280.792 219.698L303.313 267.515L291.44 279.387L262.677 213.089L270.755 205.011L280.792 219.698ZM328.445 242.382L280.384 220.106L265.655 210.11L273.856 201.91L340.276 230.551L328.445 242.382ZM310.534 224.961L318.898 233.325L292.623 259.6L284.26 251.236L310.534 224.961ZM356.841 181.592L368.632 169.801C371.814 173.364 373.8 177.281 374.588 181.551C375.377 185.821 374.942 190.201 373.283 194.688C371.596 199.149 368.673 203.46 364.511 207.622C361.111 211.022 357.548 213.524 353.822 215.129C350.123 216.706 346.342 217.413 342.48 217.25C338.617 217.087 334.769 216.067 330.934 214.19C327.126 212.286 323.413 209.526 319.795 205.908L317.429 203.542C313.812 199.924 311.078 196.184 309.228 192.322C307.352 188.433 306.345 184.543 306.209 180.654C306.073 176.764 306.781 172.983 308.331 169.311C309.854 165.612 312.234 162.144 315.471 158.908C319.877 154.501 324.338 151.537 328.853 150.014C333.395 148.463 337.801 148.164 342.072 149.116C346.342 150.014 350.286 151.972 353.903 154.991L342.153 166.741C340.548 165.3 338.835 164.293 337.013 163.722C335.163 163.124 333.205 163.151 331.138 163.804C329.098 164.429 326.949 165.871 324.691 168.128C323.114 169.706 322.012 171.379 321.387 173.147C320.761 174.915 320.625 176.791 320.979 178.777C321.359 180.735 322.23 182.802 323.59 184.978C324.922 187.127 326.772 189.385 329.138 191.751L331.546 194.158C333.939 196.552 336.197 198.456 338.318 199.87C340.467 201.257 342.52 202.141 344.479 202.522C346.41 202.875 348.273 202.726 350.068 202.073C351.891 201.393 353.659 200.196 355.372 198.483C357.33 196.524 358.704 194.607 359.493 192.73C360.254 190.826 360.418 188.949 359.982 187.1C359.547 185.25 358.5 183.414 356.841 181.592ZM367.693 108.072L415.224 155.603L403.393 167.435L355.862 119.904L367.693 108.072ZM383.156 92.6094L392.377 101.83L349.946 144.261L340.725 135.04L383.156 92.6094Z" fill="white"/>
</svg>
