<svg width="24" height="24" viewBox="0 0 24 24" fill="none" xmlns="http://www.w3.org/2000/svg">
<path d="M16.6949 4.29257C16.8823 4.47995 16.9875 4.73407 16.9875 4.99903C16.9875 5.264 16.8823 5.51811 16.6949 5.7055L10.4067 11.9938L16.6949 18.282C16.7904 18.3742 16.8665 18.4844 16.9189 18.6064C16.9712 18.7283 16.9988 18.8594 17 18.9921C17.0011 19.1248 16.9758 19.2563 16.9256 19.3791C16.8753 19.5019 16.8011 19.6135 16.7073 19.7073C16.6135 19.8011 16.5019 19.8753 16.3791 19.9256C16.2563 19.9758 16.1248 20.0011 15.9921 20C15.8594 19.9988 15.7283 19.9712 15.6064 19.9189C15.4844 19.8665 15.3742 19.7904 15.282 19.6949L8.28729 12.7002C8.09996 12.5128 7.99472 12.2587 7.99472 11.9938C7.99472 11.7288 8.09996 11.4747 8.28729 11.2873L15.282 4.29257C15.4694 4.10524 15.7235 4 15.9885 4C16.2534 4 16.5076 4.10524 16.6949 4.29257Z" fill="#586165"/>
</svg>
