<svg width="24" height="24" viewBox="0 0 24 24" fill="none" xmlns="http://www.w3.org/2000/svg">
<path d="M4.29257 7.30506C4.47995 7.11773 4.73407 7.01249 4.99903 7.01249C5.264 7.01249 5.51811 7.11773 5.7055 7.30506L11.9938 13.5933L18.282 7.30506C18.3742 7.20962 18.4844 7.13349 18.6064 7.08113C18.7283 7.02876 18.8594 7.00119 18.9921 7.00004C19.1248 6.99888 19.2563 7.02417 19.3791 7.07441C19.5019 7.12465 19.6135 7.19885 19.7073 7.29267C19.8011 7.38649 19.8753 7.49806 19.9256 7.62087C19.9758 7.74367 20.0011 7.87525 20 8.00793C19.9988 8.14061 19.9712 8.27173 19.9189 8.39364C19.8665 8.51555 19.7904 8.62581 19.6949 8.71799L12.7002 15.7127C12.5128 15.9 12.2587 16.0053 11.9938 16.0053C11.7288 16.0053 11.4747 15.9 11.2873 15.7127L4.29257 8.71799C4.10524 8.53061 4 8.27649 4 8.01152C4 7.74656 4.10524 7.49244 4.29257 7.30506Z" fill="#FBFCFB"/>
</svg>
