<svg width="24" height="24" viewBox="0 0 24 24" fill="none" xmlns="http://www.w3.org/2000/svg">
<path d="M19.7074 16.6949C19.52 16.8823 19.2659 16.9875 19.001 16.9875C18.736 16.9875 18.4819 16.8823 18.2945 16.6949L12.0062 10.4067L5.71799 16.6949C5.62582 16.7904 5.51555 16.8665 5.39364 16.9189C5.27173 16.9712 5.14061 16.9988 5.00793 17C4.87525 17.0011 4.74367 16.9758 4.62087 16.9256C4.49806 16.8753 4.38649 16.8011 4.29267 16.7073C4.19885 16.6135 4.12465 16.5019 4.07441 16.3791C4.02417 16.2563 3.99888 16.1248 4.00004 15.9921C4.00119 15.8594 4.02876 15.7283 4.08113 15.6064C4.1335 15.4844 4.20962 15.3742 4.30506 15.282L11.2998 8.28729C11.4872 8.09996 11.7413 7.99472 12.0062 7.99472C12.2712 7.99472 12.5253 8.09996 12.7127 8.28729L19.7074 15.282C19.8948 15.4694 20 15.7235 20 15.9885C20 16.2534 19.8948 16.5076 19.7074 16.6949Z" fill="#FBFCFB"/>
</svg>
